<?xml version="1.0" encoding="UTF-8" standalone="no"?>
<svg
   xmlns:dc="http://purl.org/dc/elements/1.1/"
   xmlns:cc="http://creativecommons.org/ns#"
   xmlns:rdf="http://www.w3.org/1999/02/22-rdf-syntax-ns#"
   xmlns:svg="http://www.w3.org/2000/svg"
   xmlns="http://www.w3.org/2000/svg"
   id="svg8"
   version="1.1"
   viewBox="0 0 80.962498 15.742709"
   height="59.5"
   width="306">
  <defs
     id="defs2" />
  <metadata
     id="metadata5">
    <rdf:RDF>
      <cc:Work
         rdf:about="">
        <dc:format>image/svg+xml</dc:format>
        <dc:type
           rdf:resource="http://purl.org/dc/dcmitype/StillImage" />
        <dc:title></dc:title>
      </cc:Work>
    </rdf:RDF>
  </metadata>
  <g
     transform="translate(0,-281.25728)"
     id="layer1">
    <g
       id="text3724"
       style="font-style:normal;font-weight:normal;font-size:10.58333397px;line-height:1.25;font-family:sans-serif;letter-spacing:0px;word-spacing:0px;fill:#000000;fill-opacity:1;stroke:none;stroke-width:0.26458335"
       aria-label="Matheus G. Carlos">
      <path
         id="path29"
         style="font-style:normal;font-variant:normal;font-weight:normal;font-stretch:normal;font-size:7.4083333px;font-family:'Sebastián Font';-inkscape-font-specification:'Sebastián Font';text-align:center;text-anchor:middle;stroke-width:0.26458335"
         d="m 3.3317824,285.80099 q -0.2963333,0.43216 -0.5062361,0.82727 -0.1975555,0.38276 -0.4198055,0.92604 -0.1728611,0.40746 -0.3827639,0.70379 -0.1975556,0.28399 -0.5309306,0.39511 -0.2592916,0.11113 -0.22225,-0.0617 0.024694,-0.1852 0.098778,-0.55562 0.111125,-0.45685 0.3827639,-1.16064 0.2716389,-0.70379 0.6050139,-1.34585 0.3457222,-0.6544 0.7037916,-1.08655 0.3704167,-0.4445 0.66675,-0.37042 0.1728611,0.0617 0.3210278,0.41981 0.1481667,0.40746 0.3951111,1.01247 0.2469445,0.60501 0.6914445,0.53093 0.111125,-0.0124 0.3086805,-0.16051 0.2099028,-0.16052 0.3457222,-0.32103 0.098778,-0.12347 0.333375,-0.41981 0.2469445,-0.29633 0.5432778,-0.62971 0.2963333,-0.34572 0.5926667,-0.6544 0.3086805,-0.32103 0.5309305,-0.50623 0.333375,-0.27164 0.4568473,0.0247 0.1234722,0.29633 0.049389,1.01247 -0.037042,0.28399 -0.2716388,0.97543 -0.22225,0.6791 -0.3827639,1.39524 -0.1605139,0.71614 -0.1234723,1.28411 0.037042,0.55562 0.555625,0.59267 0.5309306,0.0494 0.5926667,0.2099 0.074083,0.16051 -0.3704167,0.55562 -0.22225,0.18521 -0.4691944,0.22225 -0.2345972,0.0247 -0.6420556,-0.46919 -0.22225,-0.25929 -0.2963333,-0.72849 -0.061736,-0.48154 0,-1.02482 0.074083,-0.64205 0.2345972,-1.32115 0.1605139,-0.6791 0.111125,-0.76553 -0.111125,-0.12347 -0.4198055,0.2593 -0.2592917,0.33337 -0.66675,0.70379 -0.3951111,0.35807 -0.7531806,0.62971 -0.1481666,0.12347 -0.4691944,0.16051 -0.3086806,0.037 -0.5803195,-0.33338 -0.074083,-0.0864 -0.1975555,-0.30868 -0.1234722,-0.23459 -0.2592917,-0.43215 -0.1358194,-0.19755 -0.2839861,-0.28399 -0.1481667,-0.0864 -0.2716389,0.0988 z" />
      <path
         id="path31"
         style="font-style:normal;font-variant:normal;font-weight:normal;font-stretch:normal;font-size:7.4083333px;font-family:'Sebastián Font';-inkscape-font-specification:'Sebastián Font';text-align:center;text-anchor:middle;stroke-width:0.26458335"
         d="m 8.3381953,289.57924 q 0.5062361,-1.5434 0.8149167,-2.74108 0.3210277,-1.19768 0.987778,-2.70404 0.148166,-0.34572 0.456847,-0.18521 0.321028,0.14817 0.407458,0.54328 0.148167,0.66675 0.197556,1.37054 0.04939,0.69144 0.197555,1.35819 0,0.0617 0.02469,0.13582 0.02469,0.0617 0.08643,0.0494 0.740834,-0.11112 1.55575,-0.0988 0.22225,0 0.197556,0.37042 -0.02469,0.35807 -0.209903,0.38276 -0.333375,0.0494 -0.66675,0.0617 -0.333375,0 -0.518583,0 -0.259292,0 -0.197556,0.18521 0.06174,0.18521 0.246945,0.50623 0.04939,0.11113 0.111125,0.33338 0.07408,0.2099 0,0.32103 -0.172861,0.24694 -0.506236,0.2099 -0.481542,-0.0494 -0.975431,-0.22225 -0.493889,-0.18521 -0.8519583,-0.49389 -0.2099027,-0.16051 -0.1975555,-0.34572 0.024694,-0.18521 0.111125,-0.28399 0.2469444,-0.25929 0.4815418,-0.40746 0.234597,-0.14816 0.555625,-0.29633 0.07408,-0.037 0.07408,-0.11112 0.01235,-0.0741 0.01235,-0.12348 -0.09878,-0.40745 -0.148166,-0.81491 -0.03704,-0.40746 -0.07408,-0.92604 -0.02469,-0.17287 -0.148166,-0.12348 -0.111125,0.0494 -0.148167,0.18521 -0.395111,1.18534 -0.6914444,1.96321 -0.2839861,0.76553 -0.555625,1.95086 -0.049389,0.18521 -0.049389,0.40746 0,0.2346 -0.061736,0.38276 -0.2099028,0.40746 -0.4321528,0.38277 -0.22225,-0.0247 -0.2963333,-0.25929 -0.061736,-0.20991 0.049389,-0.49389 0.098778,-0.28399 0.1605139,-0.4692 z m 2.6423057,-1.29646 q -0.06174,-0.11112 -0.271639,0.0371 -0.197556,0.14816 -0.283986,0.25929 -0.03704,0.0494 -0.01235,0.12347 0.02469,0.0741 0.08643,0.0988 0.197556,0.12347 0.407459,0.12347 0.08643,0 0.185208,0.0247 0.111125,0.0247 0.08643,-0.12347 -0.02469,-0.13582 -0.08643,-0.27164 -0.04939,-0.14816 -0.111125,-0.27164 z" />
      <path
         id="path33"
         style="font-style:normal;font-variant:normal;font-weight:normal;font-stretch:normal;font-size:7.4083333px;font-family:'Sebastián Font';-inkscape-font-specification:'Sebastián Font';text-align:center;text-anchor:middle;stroke-width:0.26458335"
         d="m 14.679072,285.66517 q 0.02469,-0.12347 -0.493888,-0.0988 -0.518584,0.0123 -0.975431,0.1852 -0.172861,0.0741 -0.283986,-0.23459 -0.111125,-0.32103 -0.08643,-0.45685 0.06174,-0.24695 0.654403,-0.32103 0.592667,-0.0864 1.321153,-0.0741 0.740833,0.0123 1.407583,0.0741 0.679097,0.0494 0.889,0.0741 0.296334,0.037 0.518584,0.0741 0.22225,0.0247 0.518583,0.17286 0.135819,0.0741 0.135819,0.19755 0.01235,0.12348 -0.01235,0.29634 -0.03704,0.12347 -0.08643,0.24694 -0.03704,0.12347 -0.123473,0.11113 -0.271639,-0.0124 -0.481541,-0.0494 -0.197556,-0.037 -0.555625,-0.0988 -0.04939,0 -0.271639,-0.0247 -0.209903,-0.0371 -0.469195,-0.0617 -0.246944,-0.0247 -0.456847,-0.0124 -0.209903,0 -0.22225,0.0494 -0.03704,0.11113 -0.08643,0.29634 -0.03704,0.17286 -0.07408,0.28398 -0.148166,0.48154 -0.22225,1.00013 -0.06174,0.50623 -0.08643,0.8643 -0.03704,0.39511 0.07408,0.54328 0.123472,0.14817 0.259292,0.2346 0.135819,0.0741 0.234597,0.19755 0.09878,0.11113 0.04939,0.43216 -0.08643,0.45684 -0.333375,0.38276 -0.246945,-0.0741 -0.58032,-0.25929 -0.432152,-0.2346 -0.543277,-0.75318 -0.111125,-0.51859 -0.06174,-1.11125 0.06174,-0.59267 0.209903,-1.17299 0.148167,-0.59267 0.234597,-0.98778 z" />
      <path
         id="path35"
         style="font-style:normal;font-variant:normal;font-weight:normal;font-stretch:normal;font-size:7.4083333px;font-family:'Sebastián Font';-inkscape-font-specification:'Sebastián Font';text-align:center;text-anchor:middle;stroke-width:0.26458335"
         d="m 19.076227,286.62826 q 0.456847,0 1.049514,-0.20991 0.07408,-0.0123 0.08643,-0.14816 0.02469,-0.14817 0.03704,-0.24695 0,-0.16051 0.02469,-0.50623 0.03704,-0.35807 0.09878,-0.71614 0.07408,-0.35807 0.160513,-0.64206 0.09878,-0.28398 0.246945,-0.33337 0.407458,-0.12348 0.469194,0.0494 0.07408,0.16051 -0.01235,0.49388 -0.08643,0.32103 -0.22225,0.76553 -0.123472,0.43216 -0.123472,0.83961 0,0.0741 0,0.17286 0,0.0988 0.02469,0.11113 0.02469,0.0247 0.13582,0 0.111125,-0.0247 0.197555,-0.0494 0.197556,-0.037 0.271639,-0.0494 0.08643,-0.0247 0.308681,-0.0247 0.04939,0 0.185208,0 0.13582,-0.0123 0.259292,0.0247 0.185208,0.0617 0.283986,0.2346 0.111125,0.16051 -0.160514,0.28399 -0.08643,0.037 -0.209903,0.0617 -0.111125,0.0124 -0.259291,0.0494 -0.308681,0.0988 -0.543278,0.16051 -0.234597,0.0494 -0.518584,0.20991 -0.07408,0.0494 -0.01235,0.60501 0.07408,0.54328 0.185209,0.9137 0.04939,0.19755 0.22225,0.37041 0.172861,0.17286 0.172861,0.30868 0,0.29634 -0.345723,0.30868 -0.345722,0.0124 -0.432152,-0.0617 -0.185209,-0.16052 -0.321028,-0.60502 -0.13582,-0.45684 -0.160514,-0.74083 -0.02469,-0.22225 -0.01235,-0.56797 0.01235,-0.35807 -0.0247,-0.34572 -0.123472,0.037 -0.4445,0.0741 -0.321027,0.037 -0.53093,0.19755 -0.06174,0.037 -0.04939,0.24695 0.01235,0.2099 0.04939,0.46919 0.04939,0.24695 0.09878,0.48154 0.06174,0.2346 0.111125,0.33338 0.135819,0.34572 -0.321028,0.4445 -0.4445,0.0988 -0.518584,-0.28399 -0.148166,-0.61736 -0.160513,-1.19768 -0.01235,-0.59266 -0.01235,-1.23472 0,-0.33337 -0.01235,-0.6791 0,-0.34572 0.01235,-0.69144 0.02469,-0.66675 0.02469,-1.16064 0.01235,-0.50624 0.209903,-0.50624 0.296333,0 0.4445,0.28399 0.148166,0.27164 0.135819,0.66675 -0.03704,0.48154 -0.08643,0.92604 -0.04939,0.43215 -0.01235,0.9137 z" />
      <path
         id="path37"
         style="font-style:normal;font-variant:normal;font-weight:normal;font-stretch:normal;font-size:7.4083333px;font-family:'Sebastián Font';-inkscape-font-specification:'Sebastián Font';text-align:center;text-anchor:middle;stroke-width:0.26458335"
         d="m 26.822757,283.7637 q 0.234597,-0.0617 0.382764,0.17286 0.06174,0.11113 -0.111125,0.30868 -0.160514,0.18521 -0.246945,0.25929 -0.234597,0.19756 -0.580319,0.29634 -0.345722,0.0988 -0.567972,0.18521 -0.333375,0.13582 -0.740834,0.25929 -0.407458,0.11112 -0.703791,0.22225 -0.555625,0.23459 -0.728486,0.46919 -0.172861,0.2346 -0.0247,0.80257 0.01235,0.0741 0.111125,0.0864 0.09878,0 0.172861,-0.0247 0.543278,-0.16052 1.061861,-0.38277 0.530931,-0.23459 1.086556,-0.39511 0.111125,-0.0247 0.246944,-0.0247 0.148167,0 0.234598,0.0617 0.148166,0.12348 -0.03704,0.35807 -0.185208,0.2346 -0.358069,0.32103 -0.469195,0.24695 -0.889,0.40746 -0.407459,0.14817 -0.913695,0.25929 -0.160514,0.037 -0.345722,0.0988 -0.185208,0.0617 -0.259292,0.19755 -0.148166,0.28399 0.111125,0.59267 0.259292,0.29633 0.679097,0.29633 0.111125,0 0.197556,-0.12347 0.09878,-0.12347 0.209903,-0.19755 0.148166,-0.0988 0.321028,-0.0494 0.135819,0.0494 0.271638,0.2346 0.08643,0.16051 0,0.29633 -0.296333,0.4198 -0.765527,0.72848 -0.148167,0.11113 -0.345723,0.0741 -0.197555,-0.037 -0.296333,-0.11113 -0.333375,-0.18521 -0.567972,-0.38276 -0.22225,-0.19756 -0.432153,-0.53093 -0.197555,-0.30868 -0.283986,-0.6791 -0.07408,-0.38276 -0.09878,-0.75318 -0.03704,-0.43215 0,-0.8643 0.03704,-0.4445 0.185209,-0.86431 0.06174,-0.18521 0.234597,-0.32103 0.172861,-0.13582 0.358069,-0.2099 0.926042,-0.35807 1.69157,-0.59267 0.765527,-0.24694 1.740958,-0.48154 z" />
      <path
         id="path39"
         style="font-style:normal;font-variant:normal;font-weight:normal;font-stretch:normal;font-size:7.4083333px;font-family:'Sebastián Font';-inkscape-font-specification:'Sebastián Font';text-align:center;text-anchor:middle;stroke-width:0.26458335"
         d="m 28.098767,285.43058 q 0.123473,0.0741 0.123473,0.35807 0,0.27163 0,0.64205 -0.02469,0.71614 -0.04939,1.43228 -0.01235,0.71614 0.469194,0.90135 0.172861,0.0741 0.333375,0.037 0.160514,-0.0494 0.308681,-0.12347 0.481541,-0.2593 0.864305,-0.82727 0.395111,-0.58032 0.432153,-1.02482 0.03704,-0.33337 -0.08643,-0.72848 -0.123472,-0.39512 -0.271638,-0.72849 -0.172862,-0.37042 -0.185209,-0.59267 0,-0.23459 0.4445,-0.23459 0.259292,0 0.35807,0.17286 0.111125,0.17286 0.246944,0.48154 0.172861,0.45685 0.209903,1.03717 0.04939,0.56797 0,0.8643 -0.148167,0.80257 -0.790222,1.51871 -0.629709,0.71614 -1.197681,0.93839 -0.432153,0.16051 -0.938389,0.0741 -0.506236,-0.0864 -0.728486,-0.38276 -0.271639,-0.38277 -0.345722,-0.93839 -0.06174,-0.55563 -0.06174,-0.96308 0,-0.4445 -0.01235,-0.81492 0,-0.37042 0.07408,-0.83961 0.04939,-0.40746 0.333375,-0.38277 0.296333,0.0247 0.469194,0.12348 z" />
      <path
         id="path41"
         style="font-style:normal;font-variant:normal;font-weight:normal;font-stretch:normal;font-size:7.4083333px;font-family:'Sebastián Font';-inkscape-font-specification:'Sebastián Font';text-align:center;text-anchor:middle;stroke-width:0.26458335"
         d="m 34.216815,284.70209 q -0.296333,0.0617 -0.654403,0.0864 -0.358069,0.0247 -0.654402,0.0864 -0.296334,0.0617 -0.481542,0.2099 -0.185208,0.13582 -0.13582,0.43216 0.03704,0.29633 0.283987,0.45684 0.246944,0.16052 0.605013,0.30868 0.481542,0.19756 0.889,0.41981 0.419806,0.2099 0.605014,0.35807 0.271639,0.24694 0.35807,0.69144 0.08643,0.4445 -0.09878,0.86431 -0.333375,0.72849 -1.11125,0.95074 -0.765528,0.22225 -1.358194,-0.0988 -0.209903,-0.11113 -0.4445,-0.28399 -0.22225,-0.17286 -0.370417,-0.30868 -0.321028,-0.27164 -0.148167,-0.43215 0.185209,-0.16052 0.370417,-0.16052 0.395111,0 0.66675,0.29634 0.271639,0.29633 0.740833,0.29633 0.4445,0 0.629709,-0.28399 0.197555,-0.29633 0.172861,-0.61736 -0.0247,-0.19755 -0.271639,-0.38276 -0.234597,-0.19756 -0.543278,-0.35807 -0.296333,-0.16051 -0.580319,-0.27164 -0.283987,-0.11112 -0.382764,-0.16051 -0.518584,-0.20991 -0.716139,-0.51859 -0.185209,-0.32102 -0.197556,-0.70379 -0.01235,-0.4445 0.209903,-0.72848 0.22225,-0.28399 0.765528,-0.58032 0.271639,-0.14817 0.814916,-0.25929 0.555625,-0.11113 0.987778,-0.0988 0.432153,0 0.543278,0.18521 0.111125,0.17286 -0.493889,0.60501 z" />
      <path
         id="path43"
         style="font-style:normal;font-variant:normal;font-weight:normal;font-stretch:normal;font-size:7.4083333px;font-family:'Sebastián Font';-inkscape-font-specification:'Sebastián Font';text-align:center;text-anchor:middle;stroke-width:0.26458335"
         d="m 42.404181,283.64023 q -1.407584,-0.43215 -2.234847,0.40746 -0.827264,0.83961 -1.197681,1.97555 -0.246944,0.75318 -0.148167,1.32116 0.111125,0.56797 0.370417,0.97543 0.185208,0.30868 0.790222,0.48154 0.617361,0.17286 1.197681,0.12347 0.4445,-0.037 0.963083,-0.2346 0.530931,-0.19755 0.987778,-0.4445 0.654403,-0.35807 1.061861,-0.6544 0.419806,-0.29633 0.395111,-0.72849 -0.02469,-0.27164 -0.432153,-0.28398 -0.395111,-0.0247 -0.987777,0.0864 -0.58032,0.11112 -1.234723,0.27164 -0.642055,0.16051 -1.148291,0.23459 -0.407459,0.0741 -0.753181,0 -0.345722,-0.0741 -0.197555,-0.2099 0.08643,-0.0864 0.395111,-0.19755 0.321027,-0.12348 0.728486,-0.24695 0.407458,-0.12347 0.839611,-0.2346 0.4445,-0.12347 0.802569,-0.2099 0.691445,-0.14817 1.358195,-0.27164 0.679097,-0.13582 1.123597,0.45685 0.395111,0.54328 0.06174,1.08656 -0.321028,0.53093 -0.938389,0.98777 -0.605014,0.4445 -1.296458,0.75318 -0.691445,0.29634 -1.000125,0.37042 -1.185333,0.25929 -2.148417,0 -0.963083,-0.25929 -1.247069,-0.74083 -0.283986,-0.4692 -0.370417,-1.13595 -0.08643,-0.66675 0.04939,-1.39523 0.148167,-0.72849 0.555625,-1.45698 0.407458,-0.72848 1.135944,-1.32115 0.283987,-0.22225 0.926042,-0.4445 0.654403,-0.22225 1.259417,-0.2099 0.370416,0.0247 0.506236,0.0617 0.135819,0.0371 0.22225,0.29634 0.04939,0.18521 0.111125,0.34572 0.06174,0.14817 0.02469,0.2099 -0.04939,0.0988 -0.197555,0.0741 -0.148167,-0.0247 -0.333375,-0.0988 z" />
      <path
         id="path45"
         style="font-style:normal;font-variant:normal;font-weight:normal;font-stretch:normal;font-size:7.4083333px;font-family:'Sebastián Font';-inkscape-font-specification:'Sebastián Font';text-align:center;text-anchor:middle;stroke-width:0.26458335"
         d="m 45.633364,289.03596 q -0.148167,-0.14816 0.01235,-0.37041 0.160514,-0.22225 0.345722,-0.22225 0.04939,0 0.123472,0 0.07408,0 0.13582,0.0123 0.135819,0.037 0.09878,0.35806 -0.0247,0.30869 -0.09878,0.37042 -0.09878,0.0741 -0.321028,0.0124 -0.22225,-0.0741 -0.296333,-0.16052 z" />
      <path
         id="path47"
         style="font-style:normal;font-variant:normal;font-weight:normal;font-stretch:normal;font-size:7.4083333px;font-family:'Sebastián Font';-inkscape-font-specification:'Sebastián Font';text-align:center;text-anchor:middle;stroke-width:0.26458335"
         d="m 55.060278,283.26981 q -0.567972,0.11113 -0.901347,0.18521 -0.333375,0.0741 -0.938389,0.2346 -0.543278,0.16051 -1.148292,0.55562 -0.592666,0.39511 -1.024819,0.92604 -0.432153,0.53093 -0.567972,1.1483 -0.13582,0.61736 0.271639,1.21002 0.234597,0.37042 0.827264,0.71614 0.592666,0.33338 1.370541,0.48154 1.370542,0.29634 1.950861,0.12348 0.58032,-0.17286 0.950736,-0.28399 0.407459,-0.11112 0.432153,0.037 0.02469,0.14817 -0.03704,0.29634 -0.13582,0.33337 -0.345723,0.45684 -0.197555,0.12347 -0.432152,0.16052 -1.11125,0.22225 -1.864431,0.13582 -0.753181,-0.0741 -1.926167,-0.37042 -0.382764,-0.0864 -1.086555,-0.62971 -0.691445,-0.54328 -0.814917,-1.08655 -0.135819,-0.61737 -0.01235,-1.43228 0.135819,-0.81492 0.592667,-1.3335 0.679097,-0.77788 1.259416,-1.09891 0.592667,-0.32102 1.444625,-0.76552 0.4445,-0.22225 1.086556,-0.38277 0.654403,-0.16051 0.876653,-0.0494 0.234597,0.13582 0.358069,0.41981 0.135819,0.27164 -0.321028,0.34572 z" />
      <path
         id="path49"
         style="font-style:normal;font-variant:normal;font-weight:normal;font-stretch:normal;font-size:7.4083333px;font-family:'Sebastián Font';-inkscape-font-specification:'Sebastián Font';text-align:center;text-anchor:middle;stroke-width:0.26458335"
         d="m 56.02934,289.57924 q 0.506236,-1.5434 0.814916,-2.74108 0.321028,-1.19768 0.987778,-2.70404 0.148167,-0.34572 0.456847,-0.18521 0.321028,0.14817 0.407459,0.54328 0.148166,0.66675 0.197555,1.37054 0.04939,0.69144 0.197556,1.35819 0,0.0617 0.02469,0.13582 0.02469,0.0617 0.08643,0.0494 0.740833,-0.11112 1.55575,-0.0988 0.22225,0 0.197555,0.37042 -0.02469,0.35807 -0.209902,0.38276 -0.333375,0.0494 -0.66675,0.0617 -0.333375,0 -0.518584,0 -0.259291,0 -0.197555,0.18521 0.06174,0.18521 0.246944,0.50623 0.04939,0.11113 0.111125,0.33338 0.07408,0.2099 0,0.32103 -0.172861,0.24694 -0.506236,0.2099 -0.481542,-0.0494 -0.97543,-0.22225 -0.493889,-0.18521 -0.851959,-0.49389 -0.209903,-0.16051 -0.197555,-0.34572 0.02469,-0.18521 0.111125,-0.28399 0.246944,-0.25929 0.481541,-0.40746 0.234598,-0.14816 0.555625,-0.29633 0.07408,-0.037 0.07408,-0.11112 0.01235,-0.0741 0.01235,-0.12348 -0.09878,-0.40745 -0.148167,-0.81491 -0.03704,-0.40746 -0.07408,-0.92604 -0.0247,-0.17287 -0.148167,-0.12348 -0.111125,0.0494 -0.148166,0.18521 -0.395112,1.18534 -0.691445,1.96321 -0.283986,0.76553 -0.555625,1.95086 -0.04939,0.18521 -0.04939,0.40746 0,0.2346 -0.06174,0.38276 -0.209903,0.40746 -0.432153,0.38277 -0.22225,-0.0247 -0.296333,-0.25929 -0.06174,-0.20991 0.04939,-0.49389 0.09878,-0.28399 0.160514,-0.4692 z m 2.642305,-1.29646 q -0.06174,-0.11112 -0.271639,0.0371 -0.197555,0.14816 -0.283986,0.25929 -0.03704,0.0494 -0.01235,0.12347 0.0247,0.0741 0.08643,0.0988 0.197555,0.12347 0.407458,0.12347 0.08643,0 0.185208,0.0247 0.111125,0.0247 0.08643,-0.12347 -0.02469,-0.13582 -0.08643,-0.27164 -0.04939,-0.14816 -0.111125,-0.27164 z" />
      <path
         id="path51"
         style="font-style:normal;font-variant:normal;font-weight:normal;font-stretch:normal;font-size:7.4083333px;font-family:'Sebastián Font';-inkscape-font-specification:'Sebastián Font';text-align:center;text-anchor:middle;stroke-width:0.26458335"
         d="m 63.987703,285.10955 q -0.493888,0.18521 -0.901347,0.60501 -0.407458,0.40746 -0.691444,0.9137 -0.271639,0.50623 -0.395111,1.02482 -0.123472,0.51858 -0.04939,0.889 0.197555,1.03716 -0.4445,1.06186 -0.333375,0.0123 -0.432153,-0.4445 -0.08643,-0.4692 -0.111125,-0.95074 -0.02469,-0.59267 0.296333,-1.25942 0.321028,-0.66675 0.839612,-1.23472 0.53093,-0.56797 1.172986,-0.95073 0.654402,-0.39512 1.271763,-0.43216 0.605014,-0.0247 0.814917,0.30868 0.209903,0.32103 0.09878,0.75318 -0.111125,0.41981 -0.493889,0.83962 -0.382764,0.40745 -0.691444,0.82726 -0.370417,0.49389 -0.642056,0.90135 -0.259292,0.39511 -0.185208,0.60501 0.09878,0.32103 0.617361,0.24694 0.518583,-0.0741 1.135944,-0.29633 0.617361,-0.2346 1.172986,-0.49389 0.555625,-0.25929 0.728486,-0.32103 0.259292,-0.0741 0.246945,0.0494 0,0.12348 -0.111125,0.32103 -0.111125,0.18521 -0.271639,0.37042 -0.148167,0.18521 -0.185208,0.22225 -0.259292,0.22225 -0.80257,0.43215 -0.53093,0.2099 -1.123597,0.34572 -0.580319,0.13582 -1.098903,0.18521 -0.506236,0.0617 -0.691444,-0.0123 -0.296333,-0.11112 -0.481542,-0.33337 -0.185208,-0.22225 -0.111125,-0.69145 0.01235,-0.16051 0.370417,-0.76552 0.358069,-0.61736 0.864305,-1.18534 0.382764,-0.4445 0.728486,-0.74083 0.35807,-0.30868 0.35807,-0.70379 0,-0.17286 -0.296333,-0.16052 -0.283987,0 -0.506237,0.0741 z" />
      <path
         id="path53"
         style="font-style:normal;font-variant:normal;font-weight:normal;font-stretch:normal;font-size:7.4083333px;font-family:'Sebastián Font';-inkscape-font-specification:'Sebastián Font';text-align:center;text-anchor:middle;stroke-width:0.26458335"
         d="m 68.043186,284.19585 q 0.09878,0.0247 0.246945,0.13582 0.160514,0.11113 0.123472,0.35807 -0.08643,0.39511 -0.148167,0.889 -0.04939,0.48154 -0.08643,0.95074 -0.02469,0.45685 -0.03704,0.82726 0,0.35807 0.02469,0.48154 0.07408,0.62971 0.370417,0.889 0.308681,0.24695 0.728486,0.24695 0.234597,0 0.642056,-0.17286 0.407458,-0.17286 0.703791,-0.25929 0.209903,-0.0617 0.209903,0.16051 0.01235,0.22225 -0.123472,0.35807 -0.370417,0.37042 -0.926042,0.50624 -1.123597,0.27163 -1.740958,-0.22225 -0.716139,-0.55563 -0.691444,-1.92617 l 0.01235,-2.34597 q 0,-0.45685 0.111125,-0.69145 0.111125,-0.24694 0.580319,-0.18521 z" />
      <path
         id="path55"
         style="font-style:normal;font-variant:normal;font-weight:normal;font-stretch:normal;font-size:7.4083333px;font-family:'Sebastián Font';-inkscape-font-specification:'Sebastián Font';text-align:center;text-anchor:middle;stroke-width:0.26458335"
         d="m 72.652171,284.97373 q 0.407459,-0.0494 0.629709,0.0124 0.234597,0.0617 0.234597,0.45684 0,0.19756 -0.172861,0.34573 -0.160514,0.14816 -0.642056,0.28398 -0.321028,0.0988 -0.506236,0.29633 -0.172861,0.19756 -0.259292,0.45685 -0.333375,0.9137 0.01235,1.51871 0.358069,0.59267 1.469319,0.45685 0.605014,-0.0741 1.247069,-0.48154 0.642056,-0.41981 0.481542,-1.18534 -0.06174,-0.25929 -0.605014,-0.49389 -0.543278,-0.24694 -0.901347,-0.35807 -0.395111,-0.11112 -0.283986,-0.43215 0.111125,-0.33337 0.839611,-0.2346 0.469194,0.0617 0.913694,0.38277 0.456848,0.32103 0.691445,0.79022 0.246944,0.45685 0.172861,1.02482 -0.06174,0.55562 -0.617361,1.08656 -0.35807,0.33337 -1.000125,0.53093 -0.642056,0.19755 -1.321153,0.1852 -0.66675,-0.0247 -1.247069,-0.28398 -0.567973,-0.25929 -0.790223,-0.83961 -0.111125,-0.29634 -0.06174,-1.06186 0.06174,-0.76553 0.407459,-1.39524 0.259291,-0.46919 0.605014,-0.72849 0.358069,-0.27164 0.703791,-0.33337 z" />
      <path
         id="path57"
         style="font-style:normal;font-variant:normal;font-weight:normal;font-stretch:normal;font-size:7.4083333px;font-family:'Sebastián Font';-inkscape-font-specification:'Sebastián Font';text-align:center;text-anchor:middle;stroke-width:0.26458335"
         d="m 78.854919,284.70209 q -0.296334,0.0617 -0.654403,0.0864 -0.35807,0.0247 -0.654403,0.0864 -0.296333,0.0617 -0.481542,0.2099 -0.185208,0.13582 -0.135819,0.43216 0.03704,0.29633 0.283986,0.45684 0.246945,0.16052 0.605014,0.30868 0.481542,0.19756 0.889,0.41981 0.419806,0.2099 0.605014,0.35807 0.271639,0.24694 0.358069,0.69144 0.08643,0.4445 -0.09878,0.86431 -0.333375,0.72849 -1.11125,0.95074 -0.765528,0.22225 -1.358195,-0.0988 -0.209903,-0.11113 -0.4445,-0.28399 -0.22225,-0.17286 -0.370417,-0.30868 -0.321027,-0.27164 -0.148166,-0.43215 0.185208,-0.16052 0.370416,-0.16052 0.395112,0 0.66675,0.29634 0.271639,0.29633 0.740834,0.29633 0.4445,0 0.629708,-0.28399 0.197556,-0.29633 0.172861,-0.61736 -0.02469,-0.19755 -0.271639,-0.38276 -0.234597,-0.19756 -0.543277,-0.35807 -0.296334,-0.16051 -0.58032,-0.27164 -0.283986,-0.11112 -0.382764,-0.16051 -0.518583,-0.20991 -0.716139,-0.51859 -0.185208,-0.32102 -0.197555,-0.70379 -0.01235,-0.4445 0.209903,-0.72848 0.22225,-0.28399 0.765527,-0.58032 0.271639,-0.14817 0.814917,-0.25929 0.555625,-0.11113 0.987778,-0.0988 0.432153,0 0.543278,0.18521 0.111125,0.17286 -0.493889,0.60501 z" />
    </g>
  </g>
  <g
     transform="translate(0,-2.778125)"
     id="layer2">
    <g
       id="text3729"
       style="font-style:normal;font-weight:normal;font-size:10.58333397px;line-height:1.25;font-family:sans-serif;letter-spacing:0px;word-spacing:0px;fill:#000000;fill-opacity:1;stroke:none;stroke-width:0.26458335"
       aria-label="Fotógrafo">
      <path
         id="path60"
         style="font-style:normal;font-variant:normal;font-weight:normal;font-stretch:normal;font-size:4.23333359px;font-family:Cardo;-inkscape-font-specification:Cardo;text-align:center;letter-spacing:0.95779169px;text-anchor:middle;stroke-width:0.26458335"
         d="m 29.582816,14.273191 q 0.276986,0 0.276986,-0.270785 0,-0.01654 0.01654,-0.01654 h 0.04961 q 0.01654,0 0.01654,0.01654 v 0.768946 q 0,0.01654 -0.01654,0.01654 h -0.04961 q -0.01654,0 -0.01654,-0.01654 0,-0.19017 -0.107487,-0.262517 -0.05788,-0.03927 -0.165365,-0.03927 h -0.814421 q -0.04961,0 -0.04961,0.05581 v 1.062467 q 0,0.14056 0.167432,0.208773 0.169498,0.06615 0.212907,0.06615 0.04547,0 0.04547,0.01654 v 0.04961 q 0,0.01654 -0.01654,0.01654 h -1.128613 q -0.01654,0 -0.01654,-0.01654 v -0.04961 q 0,-0.01654 0.03514,-0.01654 0.03514,0 0.109554,-0.03307 0.07441,-0.03307 0.130224,-0.09715 0.05788,-0.06615 0.05788,-0.159163 v -2.232422 q 0,-0.134359 -0.142627,-0.192236 -0.08268,-0.03514 -0.163298,-0.03514 h -0.0083 q -0.01654,0 -0.01654,-0.01654 v -0.04961 q 0,-0.01654 0.01654,-0.01654 h 1.949235 q 0.02481,0.0041 0.03721,0.0124 0.0124,0.0062 0.0124,0.03514 v 0.500228 q 0,0.0248 -0.0083,0.03101 -0.0062,0.0062 -0.0248,0.0062 h -0.02481 q -0.0041,-0.0021 -0.02894,-0.111622 -0.02274,-0.111621 -0.07235,-0.171565 -0.08475,-0.09095 -0.192236,-0.101286 -0.04341,-0.0041 -0.10542,-0.0041 h -0.783415 q -0.04134,0 -0.04134,0.04134 v 0.957048 q 0,0.04754 0.04961,0.04754 z" />
      <path
         id="path62"
         style="font-style:normal;font-variant:normal;font-weight:normal;font-stretch:normal;font-size:4.23333359px;font-family:Cardo;-inkscape-font-specification:Cardo;text-align:center;letter-spacing:0.95779169px;text-anchor:middle;stroke-width:0.26458335"
         d="m 31.336425,15.017332 q 0,-0.407211 0.287321,-0.698666 0.289388,-0.293522 0.692464,-0.293522 0.403076,0 0.700732,0.285254 0.297657,0.283187 0.297657,0.700732 0,0.417546 -0.283187,0.704867 -0.28112,0.285254 -0.706934,0.285254 -0.425814,0 -0.706934,-0.289388 -0.281119,-0.289388 -0.281119,-0.694531 z m 0.514697,0.531233 q 0.202572,0.341065 0.551904,0.341065 0.270785,0 0.413412,-0.217041 0.144694,-0.217041 0.144694,-0.533301 0,-0.31626 -0.202572,-0.649056 -0.200504,-0.332796 -0.541569,-0.332796 -0.250114,0 -0.394808,0.217041 -0.142627,0.214974 -0.142627,0.54777 0,0.330729 0.171566,0.626318 z" />
      <path
         id="path64"
         style="font-style:normal;font-variant:normal;font-weight:normal;font-stretch:normal;font-size:4.23333359px;font-family:Cardo;-inkscape-font-specification:Cardo;text-align:center;letter-spacing:0.95779169px;text-anchor:middle;stroke-width:0.26458335"
         d="m 35.076476,14.355873 q -0.0124,0 -0.0124,0.0186 v 1.141015 q 0,0.124024 0.05374,0.194304 0.05581,0.07028 0.14056,0.07028 0.08475,0 0.146761,-0.02687 0.06408,-0.02894 0.109554,-0.06201 0.04754,-0.03307 0.08475,-0.05994 0.03721,-0.02894 0.06615,-0.02894 0.02894,0 0.02894,0.01447 0,0.04961 -0.01034,0.06408 -0.248046,0.320394 -0.479557,0.320394 -0.229443,0 -0.347266,-0.144694 -0.115755,-0.146761 -0.115755,-0.349333 v -1.151351 h -0.155029 q -0.05788,0 -0.06201,-0.03721 -0.0021,-0.03721 0.0124,-0.04754 0.109554,-0.07028 0.30179,-0.252181 0.02067,-0.02274 0.05581,-0.06821 0.03514,-0.04547 0.101285,-0.124024 0.06821,-0.07855 0.103353,-0.07855 0.03514,0 0.03514,0.02894 0,0.0041 -0.07028,0.270785 0,0.03721 0.03307,0.03927 h 0.5271 q 0.09095,0 0.09095,0.256315 0,0.0124 -0.01654,0.0124 z" />
      <path
         id="path66"
         style="font-style:normal;font-variant:normal;font-weight:normal;font-stretch:normal;font-size:4.23333359px;font-family:Cardo;-inkscape-font-specification:Cardo;text-align:center;letter-spacing:0.95779169px;text-anchor:middle;stroke-width:0.26458335"
         d="m 36.881761,15.017332 q 0,-0.407211 0.287321,-0.698666 0.289388,-0.293522 0.692464,-0.293522 0.403076,0 0.700733,0.285254 0.297656,0.283187 0.297656,0.700732 0,0.417546 -0.283187,0.704867 -0.28112,0.285254 -0.706934,0.285254 -0.425813,0 -0.706933,-0.289388 -0.28112,-0.289388 -0.28112,-0.694531 z m 0.514697,0.531233 q 0.202572,0.341065 0.551905,0.341065 0.270784,0 0.413411,-0.217041 0.144694,-0.217041 0.144694,-0.533301 0,-0.31626 -0.202572,-0.649056 -0.200504,-0.332796 -0.541569,-0.332796 -0.250114,0 -0.394808,0.217041 -0.142627,0.214974 -0.142627,0.54777 0,0.330729 0.171566,0.626318 z m 0.202572,-1.86862 q -0.0083,-0.0083 -0.0083,-0.0124 0,-0.0041 0.0083,-0.0124 l 0.440283,-0.609782 q 0.07441,-0.101286 0.146761,-0.101286 0.07235,0 0.113688,0.04754 0.04341,0.04548 0.04341,0.124024 0,0.07855 -0.113689,0.1757 l -0.556038,0.448551 q -0.01034,0.0062 -0.01654,0.0062 -0.0062,0 -0.0124,-0.0062 z" />
      <path
         id="path68"
         style="font-style:normal;font-variant:normal;font-weight:normal;font-stretch:normal;font-size:4.23333359px;font-family:Cardo;-inkscape-font-specification:Cardo;text-align:center;letter-spacing:0.95779169px;text-anchor:middle;stroke-width:0.26458335"
         d="m 41.667743,14.227716 q 0,0 0.553972,-0.0248 0.04754,0 0.06201,0.01033 0.01447,0.01033 0.03101,0.07235 0.01654,0.05994 0.01654,0.113688 0,0.05374 -0.01034,0.06201 -0.01033,0.0083 -0.04134,0.0083 h -0.458886 q 0.0124,0.02274 0.02687,0.04754 0.01447,0.0248 0.03721,0.08268 0.02274,0.05788 0.02274,0.179834 0,0.119889 -0.05994,0.252181 -0.05788,0.130225 -0.171565,0.23151 -0.252181,0.227377 -0.653191,0.227377 -0.105419,0 -0.23151,-0.03927 -0.03101,0.03307 -0.08268,0.06201 -0.05168,0.02687 -0.101286,0.05581 -0.124024,0.07028 -0.124024,0.14056 0,0.1757 0.582911,0.179834 0.58291,0.0041 0.764811,0.03927 0.183968,0.03307 0.285254,0.134359 0.159163,0.159163 0.159163,0.363802 0,0.1757 -0.150895,0.361735 -0.262516,0.328662 -0.802018,0.438216 -0.192237,0.03927 -0.407211,0.03927 -0.390673,0 -0.593245,-0.142627 -0.202572,-0.14056 -0.202572,-0.341064 0,-0.109554 0.05168,-0.181902 0.05168,-0.07028 0.130224,-0.134358 0.08062,-0.06201 0.1757,-0.132292 0.09509,-0.06821 0.181901,-0.1757 -0.198437,-0.01654 -0.341064,-0.12609 -0.14056,-0.109554 -0.14056,-0.214974 0,-0.10542 0.05581,-0.15503 0.05581,-0.05168 0.136425,-0.08682 0.08062,-0.03721 0.169499,-0.06821 0.08888,-0.03101 0.155029,-0.08062 -0.23151,-0.09095 -0.357601,-0.250114 -0.12609,-0.161231 -0.12609,-0.3514 0,-0.353467 0.256315,-0.576709 0.258382,-0.223242 0.622184,-0.223242 0.363802,0 0.578776,0.202572 z m -1.124479,2.15594 q -0.04754,0.04754 -0.07855,0.101286 -0.03101,0.05374 -0.03101,0.134359 0,0.08268 0.05788,0.171566 0.05994,0.09095 0.16123,0.163297 0.223242,0.165365 0.537435,0.165365 0.314193,0 0.568441,-0.183968 0.256315,-0.181901 0.256315,-0.401009 0,-0.217041 -0.21084,-0.291455 -0.09922,-0.03307 -0.510563,-0.04134 -0.411344,-0.0083 -0.533301,-0.02274 -0.05374,0.06201 -0.111621,0.109554 -0.05581,0.04754 -0.10542,0.09508 z m 1.025261,-1.606103 q 0,-0.291455 -0.146761,-0.473356 -0.144695,-0.183968 -0.384473,-0.183968 -0.310059,0 -0.438216,0.291455 -0.04961,0.111621 -0.04961,0.256315 0,0.295589 0.121957,0.491959 0.148828,0.235645 0.390674,0.235645 0.241845,0 0.374137,-0.163298 0.132292,-0.163297 0.132292,-0.454752 z" />
      <path
         id="path70"
         style="font-style:normal;font-variant:normal;font-weight:normal;font-stretch:normal;font-size:4.23333359px;font-family:Cardo;-inkscape-font-specification:Cardo;text-align:center;letter-spacing:0.95779169px;text-anchor:middle;stroke-width:0.26458335"
         d="m 44.707062,14.46336 q -0.02481,-0.0041 -0.07235,-0.02687 -0.171566,-0.07855 -0.268718,-0.07855 -0.09715,0 -0.204639,0.121957 -0.105419,0.119889 -0.105419,0.217041 v 0.93431 q 0,0.155029 0.179834,0.206705 0.07855,0.02067 0.146761,0.03101 0.06821,0.0083 0.08682,0.01654 0.02067,0.0083 0.02067,0.03307 0,0.02274 -0.02067,0.02687 h -1.035596 q -0.02067,-0.0041 -0.02067,-0.02894 0,-0.03721 0.09715,-0.04961 0.223243,-0.03307 0.223243,-0.235644 v -1.093474 q 0,-0.08682 -0.09508,-0.119889 -0.04134,-0.01447 -0.08888,-0.02274 -0.04754,-0.01033 -0.07648,-0.0186 -0.02687,-0.0083 -0.03514,-0.01447 -0.0062,-0.0083 -0.0062,-0.03101 0,-0.0248 0.03101,-0.04134 l 0.5271,-0.248047 q 0.0248,-0.0124 0.03101,-0.0124 0.03514,0 0.03514,0.04961 v 0.334864 q 0,0.0248 0.0124,0.0248 0.01654,0 0.08475,-0.09715 0.196371,-0.274919 0.324528,-0.274919 0.07235,0 0.221175,0.05788 0.150896,0.05788 0.150896,0.09715 0,0.04754 -0.04754,0.144694 -0.04754,0.09715 -0.09508,0.09715 z" />
      <path
         id="path72"
         style="font-style:normal;font-variant:normal;font-weight:normal;font-stretch:normal;font-size:4.23333359px;font-family:Cardo;-inkscape-font-specification:Cardo;text-align:center;letter-spacing:0.95779169px;text-anchor:middle;stroke-width:0.26458335"
         d="m 47.231683,15.604376 q 0,0.05374 0.04961,0.08682 0.05168,0.03101 0.117822,0.03101 0.06615,0 0.109554,-0.03307 0.04548,-0.03514 0.06201,-0.03514 0.01654,0 0.01654,0.04547 0,0.04341 -0.04134,0.07442 -0.310059,0.227376 -0.419613,0.227376 -0.132291,0 -0.214974,-0.274919 -0.0062,-0.02067 -0.01033,-0.0186 -0.256315,0.192236 -0.322461,0.23151 -0.169499,0.09715 -0.341064,0.03101 -0.169499,-0.06615 -0.24598,-0.219108 -0.03721,-0.07855 -0.03721,-0.167432 0,-0.1757 0.130224,-0.279053 0.130225,-0.103352 0.496094,-0.198437 0.124024,-0.03307 0.221175,-0.08475 0.09715,-0.05168 0.101286,-0.06615 0.0062,-0.01447 0.0062,-0.02687 v -0.396875 q 0,-0.233577 -0.181901,-0.328662 -0.05994,-0.03101 -0.144694,-0.03101 -0.08268,0 -0.169498,0.06615 -0.08475,0.06615 -0.08475,0.188102 l 0.01034,0.08061 q -0.0124,0.02481 -0.148828,0.08268 -0.136425,0.05788 -0.157096,0.06201 -0.03307,0 -0.03307,-0.07855 0,-0.08062 0.04754,-0.177767 0.04754,-0.09715 0.134359,-0.177767 0.202572,-0.188102 0.463021,-0.188102 0.260449,0 0.423747,0.144694 0.163297,0.142627 0.163297,0.341065 z m -0.952913,-0.05995 q 0,0.09922 0.07648,0.173633 0.07648,0.07235 0.173633,0.07235 0.09922,0 0.239778,-0.08268 0.14056,-0.08475 0.14056,-0.173633 v -0.419613 q 0,-0.02274 -0.01033,-0.02274 -0.01034,0 -0.01447,0.0021 l -0.479558,0.223242 q -0.07441,0.05374 -0.101286,0.09095 -0.0248,0.03721 -0.0248,0.136426 z" />
      <path
         id="path74"
         style="font-style:normal;font-variant:normal;font-weight:normal;font-stretch:normal;font-size:4.23333359px;font-family:Cardo;-inkscape-font-specification:Cardo;text-align:center;letter-spacing:0.95779169px;text-anchor:middle;stroke-width:0.26458335"
         d="m 49.869993,15.912367 q 0,0.03307 -0.03721,0.03307 h -1.134815 q -0.02067,-0.0041 -0.02067,-0.02894 0,-0.03721 0.09715,-0.04961 0.223242,-0.03307 0.223242,-0.235644 v -1.252637 q 0,-0.02274 -0.0248,-0.02274 h -0.22531 q -0.0248,0 -0.04754,-0.01447 -0.02274,-0.01654 -0.02274,-0.04134 0,-0.02687 0.02481,-0.04134 0.03514,-0.02067 0.165365,-0.05581 0.130224,-0.03514 0.130224,-0.115755 v -0.06821 q 0,-0.744141 0.322461,-1.14515 0.179834,-0.225309 0.547771,-0.347266 0.111621,-0.03721 0.221175,-0.03721 0.109554,0 0.256315,0.05788 0.146761,0.05581 0.146761,0.136426 0,0.01654 -0.0062,0.02894 -0.0041,0.0124 -0.01034,0.03101 l -0.08475,0.181901 q -0.01654,0.03307 -0.03927,0.03307 -0.0062,0 -0.08888,-0.06408 -0.08268,-0.06615 -0.1757,-0.11989 -0.09095,-0.05581 -0.214974,-0.05581 -0.241846,0 -0.36587,0.124023 -0.124023,0.124024 -0.155029,0.28112 -0.03101,0.155029 -0.03101,0.343131 v 0.601514 q 0,0.01654 0.02067,0.01654 h 0.403076 q 0.05788,0 0.07441,0.0124 0.0186,0.01033 0.03514,0.07441 0.01654,0.06201 0.01654,0.115755 0,0.05168 -0.01034,0.05994 -0.01033,0.0083 -0.04341,0.0083 h -0.469222 q -0.02687,0 -0.02687,0.02067 v 1.213362 q 0,0.29559 0.512631,0.29559 0.03721,0.0041 0.03721,0.02687 z" />
      <path
         id="path76"
         style="font-style:normal;font-variant:normal;font-weight:normal;font-stretch:normal;font-size:4.23333359px;font-family:Cardo;-inkscape-font-specification:Cardo;text-align:center;letter-spacing:0.95779169px;text-anchor:middle;stroke-width:0.26458335"
         d="m 50.997282,15.017332 q 0,-0.407211 0.287321,-0.698666 0.289388,-0.293522 0.692465,-0.293522 0.403076,0 0.700732,0.285254 0.297656,0.283187 0.297656,0.700732 0,0.417546 -0.283187,0.704867 -0.281119,0.285254 -0.706933,0.285254 -0.425814,0 -0.706934,-0.289388 -0.28112,-0.289388 -0.28112,-0.694531 z m 0.514698,0.531233 q 0.202571,0.341065 0.551904,0.341065 0.270785,0 0.413411,-0.217041 0.144694,-0.217041 0.144694,-0.533301 0,-0.31626 -0.202571,-0.649056 -0.200505,-0.332796 -0.541569,-0.332796 -0.250114,0 -0.394808,0.217041 -0.142627,0.214974 -0.142627,0.54777 0,0.330729 0.171566,0.626318 z" />
    </g>
  </g>
</svg>
