<?xml version="1.0" encoding="UTF-8" standalone="no"?>
<svg
   xmlns:dc="http://purl.org/dc/elements/1.1/"
   xmlns:cc="http://creativecommons.org/ns#"
   xmlns:rdf="http://www.w3.org/1999/02/22-rdf-syntax-ns#"
   xmlns:svg="http://www.w3.org/2000/svg"
   xmlns="http://www.w3.org/2000/svg"
   id="svg8"
   version="1.1"
   viewBox="0 0 95.249998 18.520834"
   height="70"
   width="360">
  <defs
     id="defs2" />
  <metadata
     id="metadata5">
    <rdf:RDF>
      <cc:Work
         rdf:about="">
        <dc:format>image/svg+xml</dc:format>
        <dc:type
           rdf:resource="http://purl.org/dc/dcmitype/StillImage" />
        <dc:title></dc:title>
      </cc:Work>
    </rdf:RDF>
  </metadata>
  <g
     transform="translate(0,-278.47915)"
     id="layer1">
    <g
       id="text3724"
       style="font-style:normal;font-weight:normal;font-size:10.58333397px;line-height:1.25;font-family:sans-serif;letter-spacing:0px;word-spacing:0px;fill:#000000;fill-opacity:1;stroke:none;stroke-width:0.26458335"
       aria-label="Matheus G. Carlos">
      <path
         id="path29"
         style="font-style:normal;font-variant:normal;font-weight:normal;font-stretch:normal;font-size:8.81944466px;font-family:'Sebastián Font';-inkscape-font-specification:'Sebastián Font';text-align:center;text-anchor:middle;stroke-width:0.26458335"
         d="m 3.3994416,283.25533 q -0.3527778,0.51447 -0.6026621,0.98484 -0.2351852,0.45567 -0.4997685,1.10243 -0.2057871,0.48507 -0.4556713,0.83784 -0.2351852,0.33808 -0.6320602,0.47038 -0.30868059,0.13229 -0.26458337,-0.0735 0.0293982,-0.22049 0.11759257,-0.66146 0.1322917,-0.54386 0.4556713,-1.38171 0.3233797,-0.83785 0.7202547,-1.6022 0.4115741,-0.77905 0.8378472,-1.29352 0.4409723,-0.52917 0.79375,-0.44097 0.2057871,0.0735 0.382176,0.49977 0.1763889,0.48507 0.4703704,1.20532 0.2939814,0.72026 0.8231481,0.63206 0.1322917,-0.0147 0.3674769,-0.19109 0.2498843,-0.19108 0.4115741,-0.38217 0.1175926,-0.14699 0.396875,-0.49977 0.2939815,-0.35278 0.6467593,-0.74965 0.3527777,-0.41158 0.7055555,-0.77905 0.3674769,-0.38218 0.6320602,-0.60267 0.396875,-0.32338 0.5438658,0.0294 0.1469907,0.35278 0.058796,1.20533 -0.044097,0.33807 -0.3233797,1.16122 -0.2645833,0.80845 -0.4556713,1.661 -0.1910879,0.85254 -0.1469907,1.5287 0.044097,0.66146 0.6614583,0.70556 0.6320602,0.0588 0.7055556,0.24988 0.088195,0.19109 -0.4409722,0.66146 -0.2645834,0.22049 -0.5585648,0.26458 -0.2792825,0.0294 -0.7643519,-0.55856 -0.2645834,-0.30868 -0.3527778,-0.86725 -0.073495,-0.57326 0,-1.22002 0.088194,-0.76435 0.2792824,-1.5728 0.191088,-0.80845 0.1322917,-0.91134 -0.1322917,-0.14699 -0.4997685,0.30868 -0.3086806,0.39687 -0.7937501,0.83784 -0.4703703,0.42628 -0.8966435,0.74966 -0.1763889,0.14699 -0.5585648,0.19108 -0.3674769,0.0441 -0.6908565,-0.39687 -0.088195,-0.10289 -0.2351852,-0.36748 -0.1469908,-0.27928 -0.3086806,-0.51446 -0.1616898,-0.23519 -0.3380787,-0.33808 -0.1763889,-0.1029 -0.3233796,0.11759 z" />
      <path
         id="path31"
         style="font-style:normal;font-variant:normal;font-weight:normal;font-stretch:normal;font-size:8.81944466px;font-family:'Sebastián Font';-inkscape-font-specification:'Sebastián Font';text-align:center;text-anchor:middle;stroke-width:0.26458335"
         d="m 9.3594573,287.75325 q 0.6026621,-1.83739 0.9701387,-3.2632 0.382176,-1.42581 1.175926,-3.2191 0.176389,-0.41157 0.543866,-0.22048 0.382176,0.17639 0.485069,0.64676 0.176389,0.79375 0.235186,1.63159 0.0588,0.82315 0.235185,1.6169 0,0.0735 0.0294,0.16169 0.0294,0.0735 0.102893,0.0588 0.881945,-0.13229 1.852084,-0.11759 0.264583,0 0.235185,0.44097 -0.0294,0.42627 -0.249884,0.45567 -0.396875,0.0588 -0.79375,0.0735 -0.396875,0 -0.617361,0 -0.308681,0 -0.235186,0.22048 0.0735,0.22049 0.293982,0.60266 0.0588,0.13229 0.132292,0.39688 0.08819,0.24988 0,0.38217 -0.205787,0.29399 -0.602662,0.24989 -0.573264,-0.0588 -1.161227,-0.26458 -0.587963,-0.22049 -1.014236,-0.58797 -0.249885,-0.19109 -0.235186,-0.41157 0.0294,-0.22049 0.132292,-0.33808 0.293981,-0.30868 0.573264,-0.48507 0.279282,-0.17639 0.661458,-0.35278 0.0882,-0.0441 0.0882,-0.13229 0.0147,-0.0882 0.0147,-0.14699 -0.117593,-0.48507 -0.176389,-0.97014 -0.0441,-0.48507 -0.0882,-1.10243 -0.0294,-0.20579 -0.176388,-0.14699 -0.132292,0.0588 -0.176389,0.22049 -0.470371,1.41111 -0.823149,2.33715 -0.338078,0.91134 -0.661458,2.32245 -0.0588,0.22049 -0.0588,0.48507 0,0.27928 -0.073495,0.45567 -0.2498843,0.48507 -0.5144676,0.45567 -0.2645834,-0.0294 -0.3527778,-0.30868 -0.073495,-0.24988 0.058796,-0.58796 0.1175926,-0.33808 0.1910879,-0.55856 z m 3.1456017,-1.54341 q -0.07349,-0.13229 -0.323379,0.0441 -0.235186,0.17639 -0.338079,0.30868 -0.0441,0.0588 -0.0147,0.14699 0.0294,0.0882 0.102893,0.11759 0.235186,0.14699 0.48507,0.14699 0.102893,0 0.220486,0.0294 0.132292,0.0294 0.102893,-0.14699 -0.0294,-0.16169 -0.102893,-0.32338 -0.0588,-0.17639 -0.132292,-0.32338 z" />
      <path
         id="path33"
         style="font-style:normal;font-variant:normal;font-weight:normal;font-stretch:normal;font-size:8.81944466px;font-family:'Sebastián Font';-inkscape-font-specification:'Sebastián Font';text-align:center;text-anchor:middle;stroke-width:0.26458335"
         d="m 16.908122,283.09364 q 0.0294,-0.14699 -0.587963,-0.11759 -0.617361,0.0147 -1.161227,0.22048 -0.205787,0.0882 -0.338079,-0.27928 -0.132291,-0.38218 -0.102893,-0.54387 0.07349,-0.29398 0.779051,-0.38217 0.705555,-0.10289 1.572801,-0.0882 0.881944,0.0147 1.675694,0.0882 0.808449,0.0588 1.058333,0.0882 0.352778,0.0441 0.617362,0.0882 0.264583,0.0294 0.617361,0.20578 0.16169,0.0882 0.16169,0.23519 0.0147,0.14699 -0.0147,0.35278 -0.0441,0.14699 -0.102893,0.29398 -0.0441,0.14699 -0.146991,0.13229 -0.323379,-0.0147 -0.573264,-0.0588 -0.235185,-0.0441 -0.661458,-0.11759 -0.0588,0 -0.32338,-0.0294 -0.249884,-0.0441 -0.558565,-0.0735 -0.293981,-0.0294 -0.543865,-0.0147 -0.249885,0 -0.264584,0.0588 -0.0441,0.13229 -0.102893,0.35277 -0.0441,0.20579 -0.08819,0.33808 -0.176388,0.57327 -0.264583,1.19063 -0.0735,0.60266 -0.102893,1.02893 -0.0441,0.47037 0.08819,0.64676 0.146991,0.17639 0.308681,0.27928 0.161689,0.0882 0.279282,0.23519 0.117593,0.13229 0.0588,0.51447 -0.102893,0.54386 -0.396875,0.45567 -0.293981,-0.0882 -0.690856,-0.30868 -0.514468,-0.27928 -0.64676,-0.89665 -0.132291,-0.61736 -0.07349,-1.32291 0.07349,-0.70556 0.249884,-1.39641 0.176389,-0.70556 0.279283,-1.17593 z" />
      <path
         id="path35"
         style="font-style:normal;font-variant:normal;font-weight:normal;font-stretch:normal;font-size:8.81944466px;font-family:'Sebastián Font';-inkscape-font-specification:'Sebastián Font';text-align:center;text-anchor:middle;stroke-width:0.26458335"
         d="m 22.142829,284.24017 q 0.543866,0 1.249421,-0.24989 0.08819,-0.0147 0.102894,-0.17639 0.0294,-0.17638 0.0441,-0.29398 0,-0.19109 0.0294,-0.60266 0.0441,-0.42627 0.117593,-0.85255 0.08819,-0.42627 0.191088,-0.76435 0.117592,-0.33808 0.293981,-0.39687 0.48507,-0.14699 0.558565,0.0588 0.08819,0.19109 -0.0147,0.58797 -0.102893,0.38217 -0.264583,0.91134 -0.146991,0.51447 -0.146991,0.99954 0,0.0882 0,0.20578 0,0.1176 0.0294,0.13229 0.0294,0.0294 0.16169,0 0.132292,-0.0294 0.235185,-0.0588 0.235185,-0.0441 0.32338,-0.0588 0.102893,-0.0294 0.367477,-0.0294 0.0588,0 0.220486,0 0.16169,-0.0147 0.30868,0.0294 0.220486,0.0735 0.338079,0.27928 0.132292,0.19109 -0.191088,0.33808 -0.102893,0.0441 -0.249884,0.0735 -0.132292,0.0147 -0.308681,0.0588 -0.367477,0.11759 -0.646759,0.19108 -0.279282,0.0588 -0.617361,0.24989 -0.08819,0.0588 -0.0147,0.72025 0.08819,0.64676 0.220486,1.08773 0.0588,0.23519 0.264583,0.44098 0.205787,0.20578 0.205787,0.36747 0,0.35278 -0.411574,0.36748 -0.411574,0.0147 -0.514467,-0.0735 -0.220486,-0.19108 -0.382176,-0.72025 -0.16169,-0.54387 -0.191088,-0.88195 -0.0294,-0.26458 -0.0147,-0.67615 0.0147,-0.42628 -0.0294,-0.41158 -0.146991,0.0441 -0.529167,0.0882 -0.382176,0.0441 -0.63206,0.23518 -0.0735,0.0441 -0.0588,0.29398 0.0147,0.24989 0.0588,0.55857 0.0588,0.29398 0.117592,0.57326 0.0735,0.27929 0.132292,0.39688 0.16169,0.41157 -0.382176,0.52917 -0.529167,0.11759 -0.617361,-0.33808 -0.176389,-0.73496 -0.191088,-1.42581 -0.0147,-0.70556 -0.0147,-1.46991 0,-0.39688 -0.0147,-0.80845 0,-0.41157 0.0147,-0.82315 0.0294,-0.79375 0.0294,-1.38171 0.0147,-0.60266 0.249884,-0.60266 0.352778,0 0.529167,0.33808 0.176389,0.32337 0.16169,0.79375 -0.0441,0.57326 -0.102894,1.10243 -0.0588,0.51446 -0.0147,1.08773 z" />
      <path
         id="path37"
         style="font-style:normal;font-variant:normal;font-weight:normal;font-stretch:normal;font-size:8.81944466px;font-family:'Sebastián Font';-inkscape-font-specification:'Sebastián Font';text-align:center;text-anchor:middle;stroke-width:0.26458335"
         d="m 31.36489,280.82998 q 0.279282,-0.0735 0.455671,0.20579 0.0735,0.13229 -0.132291,0.36748 -0.191088,0.22048 -0.293982,0.30868 -0.279282,0.23518 -0.690856,0.35277 -0.411574,0.1176 -0.676158,0.22049 -0.396875,0.16169 -0.881944,0.30868 -0.48507,0.13229 -0.837847,0.26458 -0.661459,0.27929 -0.867246,0.55857 -0.205787,0.27928 -0.0294,0.95544 0.0147,0.0882 0.132292,0.10289 0.117592,0 0.205787,-0.0294 0.646759,-0.19108 1.26412,-0.45567 0.63206,-0.27928 1.293519,-0.47037 0.132291,-0.0294 0.293981,-0.0294 0.176389,0 0.279283,0.0735 0.176388,0.14699 -0.0441,0.42627 -0.220486,0.27929 -0.426273,0.38218 -0.558565,0.29398 -1.058333,0.48507 -0.48507,0.17639 -1.087732,0.30868 -0.191088,0.0441 -0.411574,0.11759 -0.220486,0.0735 -0.30868,0.23519 -0.176389,0.33808 0.132291,0.70555 0.308681,0.35278 0.808449,0.35278 0.132292,0 0.235186,-0.14699 0.117592,-0.14699 0.249884,-0.23519 0.176389,-0.11759 0.382176,-0.0588 0.16169,0.0588 0.323379,0.27928 0.102894,0.19109 0,0.35278 -0.352777,0.49977 -0.911342,0.86724 -0.176389,0.1323 -0.411574,0.0882 -0.235185,-0.0441 -0.352778,-0.13229 -0.396875,-0.22049 -0.676157,-0.45568 -0.264584,-0.23518 -0.514468,-0.63206 -0.235185,-0.36747 -0.338079,-0.80844 -0.08819,-0.45568 -0.117592,-0.89665 -0.0441,-0.51447 0,-1.02893 0.0441,-0.52917 0.220486,-1.02894 0.0735,-0.22048 0.279282,-0.38217 0.205787,-0.16169 0.426273,-0.24989 1.102431,-0.42627 2.013774,-0.70555 0.911342,-0.29399 2.072569,-0.57327 z" />
      <path
         id="path39"
         style="font-style:normal;font-variant:normal;font-weight:normal;font-stretch:normal;font-size:8.81944466px;font-family:'Sebastián Font';-inkscape-font-specification:'Sebastián Font';text-align:center;text-anchor:middle;stroke-width:0.26458335"
         d="m 32.883948,282.81436 q 0.146991,0.0882 0.146991,0.42627 0,0.32338 0,0.76435 -0.0294,0.85255 -0.0588,1.70509 -0.0147,0.85255 0.558565,1.07304 0.205787,0.0882 0.396875,0.0441 0.191088,-0.0588 0.367477,-0.14699 0.573264,-0.30868 1.028935,-0.98483 0.470371,-0.69086 0.514468,-1.22003 0.0441,-0.39687 -0.102894,-0.86724 -0.14699,-0.47037 -0.323379,-0.86725 -0.205787,-0.44097 -0.220487,-0.70555 0,-0.27929 0.529167,-0.27929 0.308681,0 0.426273,0.20579 0.132292,0.20579 0.293982,0.57326 0.205787,0.54387 0.249884,1.23473 0.0588,0.67615 0,1.02893 -0.176389,0.95544 -0.940741,1.80799 -0.749652,0.85254 -1.42581,1.11713 -0.514468,0.19109 -1.11713,0.0882 -0.602662,-0.10289 -0.867245,-0.45567 -0.32338,-0.45567 -0.411574,-1.11713 -0.0735,-0.66146 -0.0735,-1.14653 0,-0.52916 -0.0147,-0.97014 0,-0.44097 0.08819,-0.99953 0.0588,-0.48507 0.396875,-0.45567 0.352778,0.0294 0.558565,0.14699 z" />
      <path
         id="path41"
         style="font-style:normal;font-variant:normal;font-weight:normal;font-stretch:normal;font-size:8.81944466px;font-family:'Sebastián Font';-inkscape-font-specification:'Sebastián Font';text-align:center;text-anchor:middle;stroke-width:0.26458335"
         d="m 40.167337,281.94711 q -0.352778,0.0735 -0.779051,0.1029 -0.426273,0.0294 -0.779051,0.10289 -0.352778,0.0735 -0.573264,0.24988 -0.220486,0.16169 -0.161689,0.51447 0.0441,0.35278 0.338078,0.54387 0.293982,0.19108 0.720255,0.36747 0.573264,0.23519 1.058333,0.49977 0.499769,0.24989 0.720255,0.42627 0.32338,0.29399 0.426273,0.82315 0.102894,0.52917 -0.117593,1.02894 -0.396875,0.86724 -1.322916,1.13183 -0.911343,0.26458 -1.616898,-0.1176 -0.249885,-0.13229 -0.529167,-0.33807 -0.264583,-0.20579 -0.440972,-0.36748 -0.382176,-0.32338 -0.176389,-0.51447 0.220486,-0.19109 0.440972,-0.19109 0.47037,0 0.79375,0.35278 0.32338,0.35278 0.881945,0.35278 0.529166,0 0.749652,-0.33808 0.235185,-0.35278 0.205787,-0.73495 -0.0294,-0.23519 -0.323379,-0.45568 -0.279283,-0.23518 -0.64676,-0.42627 -0.352777,-0.19109 -0.690856,-0.32338 -0.338079,-0.13229 -0.455671,-0.19109 -0.617362,-0.24988 -0.852547,-0.61736 -0.220486,-0.38217 -0.235185,-0.83784 -0.0147,-0.52917 0.249884,-0.86725 0.264584,-0.33808 0.911343,-0.69086 0.32338,-0.17638 0.970139,-0.30868 0.661458,-0.13229 1.175926,-0.11759 0.514467,0 0.646759,0.22049 0.132292,0.20578 -0.587963,0.72025 z" />
      <path
         id="path43"
         style="font-style:normal;font-variant:normal;font-weight:normal;font-stretch:normal;font-size:8.81944466px;font-family:'Sebastián Font';-inkscape-font-specification:'Sebastián Font';text-align:center;text-anchor:middle;stroke-width:0.26458335"
         d="m 49.914206,280.68299 q -1.675695,-0.51447 -2.660533,0.48507 -0.984838,0.99954 -1.42581,2.35185 -0.293982,0.89665 -0.176389,1.5728 0.132292,0.67616 0.440972,1.16123 0.220486,0.36748 0.940741,0.57326 0.734954,0.20579 1.42581,0.14699 0.529167,-0.0441 1.146528,-0.27928 0.63206,-0.23518 1.175926,-0.52916 0.779051,-0.42628 1.26412,-0.77906 0.499769,-0.35277 0.470371,-0.86724 -0.0294,-0.32338 -0.514468,-0.33808 -0.47037,-0.0294 -1.175926,0.10289 -0.690856,0.1323 -1.469907,0.32338 -0.764352,0.19109 -1.367014,0.27929 -0.48507,0.0882 -0.896644,0 -0.411574,-0.0882 -0.235185,-0.24989 0.102894,-0.10289 0.47037,-0.23518 0.382176,-0.14699 0.867246,-0.29398 0.485069,-0.147 0.999537,-0.27929 0.529167,-0.14699 0.95544,-0.24988 0.823148,-0.17639 1.616898,-0.32338 0.808449,-0.16169 1.337616,0.54386 0.47037,0.64676 0.0735,1.29352 -0.382176,0.63206 -1.11713,1.17593 -0.720254,0.52917 -1.543402,0.89664 -0.823149,0.35278 -1.190625,0.44098 -1.411112,0.30868 -2.557639,0 -1.146528,-0.30869 -1.484607,-0.88195 -0.338079,-0.55856 -0.440972,-1.35231 -0.102894,-0.79375 0.0588,-1.661 0.176389,-0.86724 0.661459,-1.73449 0.485069,-0.86725 1.352314,-1.5728 0.338079,-0.26458 1.102431,-0.52917 0.779051,-0.26458 1.499306,-0.24988 0.440972,0.0294 0.602662,0.0735 0.161689,0.0441 0.264583,0.35278 0.0588,0.22049 0.132292,0.41158 0.0735,0.17638 0.0294,0.24988 -0.0588,0.11759 -0.235185,0.0882 -0.176389,-0.0294 -0.396875,-0.11759 z" />
      <path
         id="path45"
         style="font-style:normal;font-variant:normal;font-weight:normal;font-stretch:normal;font-size:8.81944466px;font-family:'Sebastián Font';-inkscape-font-specification:'Sebastián Font';text-align:center;text-anchor:middle;stroke-width:0.26458335"
         d="m 53.758473,287.10649 q -0.176389,-0.17639 0.0147,-0.44098 0.191088,-0.26458 0.411574,-0.26458 0.0588,0 0.146991,0 0.08819,0 0.161689,0.0147 0.16169,0.0441 0.117593,0.42627 -0.0294,0.36748 -0.117593,0.44098 -0.117592,0.0882 -0.382176,0.0147 -0.264583,-0.0882 -0.352777,-0.19108 z" />
      <path
         id="path47"
         style="font-style:normal;font-variant:normal;font-weight:normal;font-stretch:normal;font-size:8.81944466px;font-family:'Sebastián Font';-inkscape-font-specification:'Sebastián Font';text-align:center;text-anchor:middle;stroke-width:0.26458335"
         d="m 64.980986,280.24202 q -0.676158,0.13229 -1.073033,0.22049 -0.396875,0.0882 -1.117129,0.27928 -0.64676,0.19109 -1.367014,0.66146 -0.705556,0.47037 -1.220023,1.10243 -0.514468,0.63206 -0.676158,1.36701 -0.16169,0.73495 0.32338,1.44051 0.279282,0.44097 0.984838,0.85255 0.705555,0.39687 1.631597,0.57326 1.631597,0.35278 2.322454,0.14699 0.690856,-0.20579 1.131829,-0.33808 0.485069,-0.13229 0.514467,0.0441 0.0294,0.17639 -0.0441,0.35278 -0.16169,0.39687 -0.411574,0.54386 -0.235185,0.14699 -0.514468,0.19109 -1.322916,0.26458 -2.21956,0.16169 -0.896644,-0.0882 -2.293056,-0.44097 -0.455671,-0.1029 -1.293518,-0.74965 -0.823148,-0.64676 -0.970139,-1.29352 -0.16169,-0.73496 -0.0147,-1.7051 0.16169,-0.97013 0.705555,-1.5875 0.80845,-0.92604 1.499306,-1.30821 0.705556,-0.38218 1.719792,-0.91135 0.529166,-0.26458 1.293518,-0.45567 0.779051,-0.19109 1.043635,-0.0588 0.279282,0.16169 0.426273,0.49976 0.16169,0.32338 -0.382176,0.41158 z" />
      <path
         id="path49"
         style="font-style:normal;font-variant:normal;font-weight:normal;font-stretch:normal;font-size:8.81944466px;font-family:'Sebastián Font';-inkscape-font-specification:'Sebastián Font';text-align:center;text-anchor:middle;stroke-width:0.26458335"
         d="m 66.134629,287.75325 q 0.602662,-1.83739 0.970139,-3.2632 0.382175,-1.42581 1.175925,-3.2191 0.176389,-0.41157 0.543866,-0.22048 0.382176,0.17639 0.48507,0.64676 0.176389,0.79375 0.235185,1.63159 0.0588,0.82315 0.235185,1.6169 0,0.0735 0.0294,0.16169 0.0294,0.0735 0.102894,0.0588 0.881944,-0.13229 1.852083,-0.11759 0.264583,0 0.235185,0.44097 -0.0294,0.42627 -0.249884,0.45567 -0.396875,0.0588 -0.79375,0.0735 -0.396875,0 -0.617361,0 -0.308681,0 -0.235185,0.22048 0.07349,0.22049 0.293981,0.60266 0.0588,0.13229 0.132292,0.39688 0.08819,0.24988 0,0.38217 -0.205787,0.29399 -0.602662,0.24989 -0.573264,-0.0588 -1.161227,-0.26458 -0.587963,-0.22049 -1.014236,-0.58797 -0.249884,-0.19109 -0.235185,-0.41157 0.0294,-0.22049 0.132291,-0.33808 0.293982,-0.30868 0.573264,-0.48507 0.279283,-0.17639 0.661459,-0.35278 0.08819,-0.0441 0.08819,-0.13229 0.0147,-0.0882 0.0147,-0.14699 -0.117593,-0.48507 -0.176389,-0.97014 -0.0441,-0.48507 -0.08819,-1.10243 -0.0294,-0.20579 -0.176389,-0.14699 -0.132292,0.0588 -0.176389,0.22049 -0.47037,1.41111 -0.823148,2.33715 -0.338079,0.91134 -0.661459,2.32245 -0.0588,0.22049 -0.0588,0.48507 0,0.27928 -0.07349,0.45567 -0.249885,0.48507 -0.514468,0.45567 -0.264583,-0.0294 -0.352778,-0.30868 -0.07349,-0.24988 0.0588,-0.58796 0.117592,-0.33808 0.191088,-0.55856 z m 3.145602,-1.54341 q -0.0735,-0.13229 -0.32338,0.0441 -0.235185,0.17639 -0.338079,0.30868 -0.0441,0.0588 -0.0147,0.14699 0.0294,0.0882 0.102894,0.11759 0.235185,0.14699 0.485069,0.14699 0.102894,0 0.220486,0.0294 0.132292,0.0294 0.102894,-0.14699 -0.0294,-0.16169 -0.102894,-0.32338 -0.0588,-0.17639 -0.132291,-0.32338 z" />
      <path
         id="path51"
         style="font-style:normal;font-variant:normal;font-weight:normal;font-stretch:normal;font-size:8.81944466px;font-family:'Sebastián Font';-inkscape-font-specification:'Sebastián Font';text-align:center;text-anchor:middle;stroke-width:0.26458335"
         d="m 75.608872,282.43218 q -0.587963,0.22049 -1.073033,0.72026 -0.485069,0.48507 -0.823148,1.08773 -0.323379,0.60266 -0.47037,1.22002 -0.146991,0.61736 -0.0588,1.05833 0.235185,1.23473 -0.529167,1.26412 -0.396875,0.0147 -0.514468,-0.52916 -0.102893,-0.55857 -0.132291,-1.13183 -0.0294,-0.70556 0.352777,-1.49931 0.382176,-0.79375 0.999537,-1.4699 0.632061,-0.67616 1.396412,-1.13183 0.779051,-0.47037 1.514005,-0.51447 0.720255,-0.0294 0.970139,0.36748 0.249884,0.38217 0.117593,0.89664 -0.132292,0.49977 -0.587963,0.99954 -0.455672,0.48507 -0.823148,0.98483 -0.440973,0.58797 -0.764352,1.07304 -0.308681,0.47037 -0.220486,0.72025 0.117592,0.38218 0.734953,0.29398 0.617361,-0.0882 1.352315,-0.35277 0.734954,-0.27929 1.396412,-0.58797 0.661459,-0.30868 0.867246,-0.38217 0.30868,-0.0882 0.293981,0.0588 0,0.14699 -0.132292,0.38218 -0.132291,0.22048 -0.323379,0.44097 -0.176389,0.22049 -0.220486,0.26458 -0.308681,0.26459 -0.95544,0.51447 -0.63206,0.24989 -1.337616,0.41158 -0.690856,0.16169 -1.308218,0.22048 -0.602662,0.0735 -0.823148,-0.0147 -0.352778,-0.13229 -0.573264,-0.39687 -0.220486,-0.26459 -0.132291,-0.82315 0.0147,-0.19109 0.440972,-0.91134 0.426273,-0.73496 1.028935,-1.41111 0.455671,-0.52917 0.867245,-0.88195 0.426274,-0.36748 0.426274,-0.83785 0,-0.20578 -0.352778,-0.19108 -0.338079,0 -0.602662,0.0882 z" />
      <path
         id="path53"
         style="font-style:normal;font-variant:normal;font-weight:normal;font-stretch:normal;font-size:8.81944466px;font-family:'Sebastián Font';-inkscape-font-specification:'Sebastián Font';text-align:center;text-anchor:middle;stroke-width:0.26458335"
         d="m 80.436833,281.34445 q 0.117592,0.0294 0.293981,0.16169 0.191088,0.13229 0.146991,0.42627 -0.102893,0.47037 -0.176389,1.05834 -0.0588,0.57326 -0.102893,1.13182 -0.0294,0.54387 -0.0441,0.98484 0,0.42628 0.0294,0.57327 0.08819,0.74965 0.440972,1.05833 0.367477,0.29398 0.867245,0.29398 0.279283,0 0.764352,-0.20579 0.485069,-0.20578 0.837847,-0.30868 0.249885,-0.0735 0.249885,0.19109 0.0147,0.26458 -0.146991,0.42627 -0.440972,0.44098 -1.102431,0.60267 -1.337616,0.32338 -2.072569,-0.26459 -0.852547,-0.66145 -0.823148,-2.29305 l 0.0147,-2.79283 q 0,-0.54386 0.132291,-0.82314 0.132292,-0.29399 0.690857,-0.22049 z" />
      <path
         id="path55"
         style="font-style:normal;font-variant:normal;font-weight:normal;font-stretch:normal;font-size:8.81944466px;font-family:'Sebastián Font';-inkscape-font-specification:'Sebastián Font';text-align:center;text-anchor:middle;stroke-width:0.26458335"
         d="m 85.923719,282.27049 q 0.485069,-0.0588 0.749653,0.0147 0.279282,0.0735 0.279282,0.54387 0,0.23518 -0.205787,0.41157 -0.191088,0.17639 -0.764352,0.33808 -0.382176,0.11759 -0.602662,0.35278 -0.205787,0.23518 -0.30868,0.54386 -0.396875,1.08773 0.0147,1.80799 0.426273,0.70555 1.74919,0.54386 0.720254,-0.0882 1.484606,-0.57326 0.764352,-0.49977 0.573264,-1.41111 -0.0735,-0.30868 -0.720255,-0.58796 -0.646759,-0.29399 -1.073032,-0.42628 -0.47037,-0.13229 -0.338079,-0.51446 0.132292,-0.39688 0.999537,-0.27929 0.558565,0.0735 1.087732,0.45567 0.543866,0.38218 0.823148,0.94075 0.293982,0.54386 0.205787,1.22002 -0.07349,0.66146 -0.734954,1.29352 -0.426273,0.39687 -1.190625,0.63206 -0.764352,0.23518 -1.572801,0.22048 -0.79375,-0.0294 -1.484606,-0.33808 -0.676158,-0.30868 -0.940741,-0.99953 -0.132292,-0.35278 -0.07349,-1.26412 0.07349,-0.91135 0.485069,-1.661 0.308681,-0.55856 0.720255,-0.86724 0.426273,-0.32338 0.837847,-0.39688 z" />
      <path
         id="path57"
         style="font-style:normal;font-variant:normal;font-weight:normal;font-stretch:normal;font-size:8.81944466px;font-family:'Sebastián Font';-inkscape-font-specification:'Sebastián Font';text-align:center;text-anchor:middle;stroke-width:0.26458335"
         d="m 93.307939,281.94711 q -0.352778,0.0735 -0.779051,0.1029 -0.426273,0.0294 -0.779051,0.10289 -0.352777,0.0735 -0.573264,0.24988 -0.220486,0.16169 -0.161689,0.51447 0.0441,0.35278 0.338078,0.54387 0.293982,0.19108 0.720255,0.36747 0.573264,0.23519 1.058333,0.49977 0.499769,0.24989 0.720255,0.42627 0.32338,0.29399 0.426273,0.82315 0.102894,0.52917 -0.117592,1.02894 -0.396875,0.86724 -1.322917,1.13183 -0.911343,0.26458 -1.616898,-0.1176 -0.249885,-0.13229 -0.529167,-0.33807 -0.264583,-0.20579 -0.440972,-0.36748 -0.382176,-0.32338 -0.176389,-0.51447 0.220486,-0.19109 0.440972,-0.19109 0.470371,0 0.79375,0.35278 0.32338,0.35278 0.881945,0.35278 0.529166,0 0.749652,-0.33808 0.235186,-0.35278 0.205787,-0.73495 -0.0294,-0.23519 -0.323379,-0.45568 -0.279283,-0.23518 -0.646759,-0.42627 -0.352778,-0.19109 -0.690857,-0.32338 -0.338079,-0.13229 -0.455671,-0.19109 -0.617361,-0.24988 -0.852547,-0.61736 -0.220486,-0.38217 -0.235185,-0.83784 -0.0147,-0.52917 0.249884,-0.86725 0.264584,-0.33808 0.911343,-0.69086 0.32338,-0.17638 0.970139,-0.30868 0.661458,-0.13229 1.175926,-0.11759 0.514468,0 0.646759,0.22049 0.132292,0.20578 -0.587963,0.72025 z" />
    </g>
  </g>
  <g
     id="layer2">
    <g
       id="text3729"
       style="font-style:normal;font-weight:normal;font-size:10.58333397px;line-height:1.25;font-family:sans-serif;letter-spacing:0px;word-spacing:0px;fill:#000000;fill-opacity:1;stroke:none;stroke-width:0.26458335"
       aria-label="Fotógrafo">
      <path
         id="path60"
         style="font-style:normal;font-variant:normal;font-weight:normal;font-stretch:normal;font-size:5.64444447px;font-family:Cardo;-inkscape-font-specification:Cardo;text-align:center;letter-spacing:0.95779169px;text-anchor:middle;stroke-width:0.26458335"
         d="m 34.37081,12.971276 q 0.369314,0 0.369314,-0.361046 0,-0.02205 0.02205,-0.02205 h 0.06615 q 0.02205,0 0.02205,0.02205 v 1.025261 q 0,0.02205 -0.02205,0.02205 h -0.06615 q -0.02205,0 -0.02205,-0.02205 0,-0.253559 -0.143316,-0.350022 -0.07717,-0.05237 -0.220486,-0.05237 h -1.085894 q -0.06615,0 -0.06615,0.07442 v 1.416623 q 0,0.187413 0.223242,0.278364 0.225998,0.08819 0.283876,0.08819 0.06063,0 0.06063,0.02205 v 0.06615 q 0,0.02205 -0.02205,0.02205 h -1.504818 q -0.02205,0 -0.02205,-0.02205 v -0.06615 q 0,-0.02205 0.04685,-0.02205 0.04685,0 0.146072,-0.0441 0.09922,-0.0441 0.173633,-0.129536 0.07717,-0.08819 0.07717,-0.212218 v -2.976562 q 0,-0.179145 -0.190169,-0.256315 -0.110243,-0.04685 -0.21773,-0.04685 h -0.01102 q -0.02205,0 -0.02205,-0.02205 v -0.06615 q 0,-0.02205 0.02205,-0.02205 h 2.59898 q 0.03307,0.0055 0.04961,0.01654 0.01654,0.0083 0.01654,0.04685 v 0.666971 q 0,0.03307 -0.01102,0.04134 -0.0083,0.0083 -0.03307,0.0083 h -0.03307 q -0.0055,-0.0028 -0.03859,-0.148828 -0.03032,-0.148828 -0.09646,-0.228755 -0.112999,-0.121267 -0.256315,-0.135047 -0.05788,-0.0055 -0.14056,-0.0055 h -1.044553 q -0.05512,0 -0.05512,0.05512 v 1.276063 q 0,0.06339 0.06615,0.06339 z" />
      <path
         id="path62"
         style="font-style:normal;font-variant:normal;font-weight:normal;font-stretch:normal;font-size:5.64444447px;font-family:Cardo;-inkscape-font-specification:Cardo;text-align:center;letter-spacing:0.95779169px;text-anchor:middle;stroke-width:0.26458335"
         d="m 36.389691,13.963464 q 0,-0.542947 0.383094,-0.931554 0.385851,-0.391363 0.923286,-0.391363 0.537435,0 0.93431,0.380339 0.396875,0.377582 0.396875,0.93431 0,0.556727 -0.377582,0.939822 -0.374827,0.380338 -0.942579,0.380338 -0.567751,0 -0.942578,-0.385851 -0.374826,-0.38585 -0.374826,-0.926041 z m 0.686263,0.708311 q 0.270095,0.454753 0.735872,0.454753 0.361046,0 0.551216,-0.289388 0.192925,-0.289388 0.192925,-0.711068 0,-0.421679 -0.270096,-0.865408 -0.267339,-0.443728 -0.722092,-0.443728 -0.333485,0 -0.52641,0.289388 -0.190169,0.286632 -0.190169,0.73036 0,0.440972 0.228754,0.835091 z" />
      <path
         id="path64"
         style="font-style:normal;font-variant:normal;font-weight:normal;font-stretch:normal;font-size:5.64444447px;font-family:Cardo;-inkscape-font-specification:Cardo;text-align:center;letter-spacing:0.95779169px;text-anchor:middle;stroke-width:0.26458335"
         d="m 41.057162,13.081519 q -0.01654,0 -0.01654,0.02481 v 1.521354 q 0,0.165365 0.07166,0.259071 0.07441,0.09371 0.187413,0.09371 0.113,0 0.195682,-0.03583 0.08544,-0.03859 0.146072,-0.08268 0.06339,-0.0441 0.112999,-0.07993 0.04961,-0.03859 0.08819,-0.03859 0.03859,0 0.03859,0.01929 0,0.06615 -0.01378,0.08544 -0.330729,0.427192 -0.63941,0.427192 -0.305924,0 -0.46302,-0.192925 -0.154341,-0.195682 -0.154341,-0.465777 v -1.535135 h -0.206705 q -0.07717,0 -0.08268,-0.04961 -0.0028,-0.04961 0.01654,-0.06339 0.146072,-0.09371 0.402387,-0.336241 0.02756,-0.03032 0.07441,-0.09095 0.04685,-0.06063 0.135048,-0.165364 0.09095,-0.104731 0.137804,-0.104731 0.04685,0 0.04685,0.03858 0,0.0055 -0.09371,0.361046 0,0.04961 0.0441,0.05236 h 0.7028 q 0.121267,0 0.121267,0.341754 0,0.01654 -0.02205,0.01654 z" />
      <path
         id="path66"
         style="font-style:normal;font-variant:normal;font-weight:normal;font-stretch:normal;font-size:5.64444447px;font-family:Cardo;-inkscape-font-specification:Cardo;text-align:center;letter-spacing:0.95779169px;text-anchor:middle;stroke-width:0.26458335"
         d="m 43.144944,13.963464 q 0,-0.542947 0.383095,-0.931554 0.38585,-0.391363 0.923285,-0.391363 0.537435,0 0.93431,0.380339 0.396875,0.377582 0.396875,0.93431 0,0.556727 -0.377582,0.939822 -0.374827,0.380338 -0.942578,0.380338 -0.567752,0 -0.942578,-0.385851 -0.374827,-0.38585 -0.374827,-0.926041 z m 0.686263,0.708311 q 0.270096,0.454753 0.735873,0.454753 0.361046,0 0.551215,-0.289388 0.192925,-0.289388 0.192925,-0.711068 0,-0.421679 -0.270095,-0.865408 -0.26734,-0.443728 -0.722092,-0.443728 -0.333486,0 -0.526411,0.289388 -0.190169,0.286632 -0.190169,0.73036 0,0.440972 0.228754,0.835091 z m 0.270096,-2.491493 q -0.01103,-0.01102 -0.01103,-0.01654 0,-0.0055 0.01103,-0.01654 l 0.587044,-0.813042 q 0.09922,-0.135048 0.195681,-0.135048 0.09646,0 0.151585,0.06339 0.05788,0.06063 0.05788,0.165364 0,0.104731 -0.151584,0.234267 l -0.741385,0.598069 q -0.01378,0.0083 -0.02205,0.0083 -0.0083,0 -0.01654,-0.0083 z" />
      <path
         id="path68"
         style="font-style:normal;font-variant:normal;font-weight:normal;font-stretch:normal;font-size:5.64444447px;font-family:Cardo;-inkscape-font-specification:Cardo;text-align:center;letter-spacing:0.95779169px;text-anchor:middle;stroke-width:0.26458335"
         d="m 49.206989,12.910643 q 0,0 0.738629,-0.03307 0.06339,0 0.08268,0.01378 0.01929,0.01378 0.04134,0.09646 0.02205,0.07993 0.02205,0.151584 0,0.07166 -0.01378,0.08268 -0.01378,0.01102 -0.05512,0.01102 h -0.611849 q 0.01654,0.03032 0.03583,0.06339 0.01929,0.03307 0.04961,0.110243 0.03032,0.07717 0.03032,0.239779 0,0.159852 -0.07993,0.336241 -0.07717,0.173633 -0.228754,0.308681 -0.336242,0.303168 -0.870921,0.303168 -0.14056,0 -0.30868,-0.05236 -0.04134,0.0441 -0.110243,0.08268 -0.0689,0.03583 -0.135048,0.07441 -0.165365,0.09371 -0.165365,0.187413 0,0.234267 0.777214,0.239779 0.777214,0.0055 1.019748,0.05236 0.245291,0.0441 0.380339,0.179145 0.212218,0.212218 0.212218,0.48507 0,0.234266 -0.201194,0.482313 -0.350022,0.438216 -1.069358,0.584288 -0.256315,0.05237 -0.542947,0.05237 -0.520898,0 -0.790994,-0.190169 -0.270095,-0.187414 -0.270095,-0.454753 0,-0.146072 0.0689,-0.242535 0.0689,-0.09371 0.173633,-0.179145 0.107487,-0.08268 0.234266,-0.176389 0.12678,-0.09095 0.242535,-0.234266 -0.264583,-0.02205 -0.454753,-0.168121 -0.187413,-0.146072 -0.187413,-0.286632 0,-0.14056 0.07441,-0.206705 0.07441,-0.0689 0.181901,-0.115756 0.107487,-0.04961 0.225999,-0.09095 0.118511,-0.04134 0.206705,-0.107487 -0.30868,-0.121267 -0.476801,-0.333485 -0.168121,-0.214974 -0.168121,-0.468533 0,-0.471289 0.341754,-0.768946 0.344509,-0.297656 0.829579,-0.297656 0.485069,0 0.771701,0.270096 z m -1.499305,2.874587 q -0.06339,0.06339 -0.104731,0.135048 -0.04134,0.07166 -0.04134,0.179145 0,0.110243 0.07717,0.228754 0.07993,0.121268 0.214974,0.21773 0.297656,0.220486 0.71658,0.220486 0.418923,0 0.757921,-0.24529 0.341753,-0.242535 0.341753,-0.534679 0,-0.289388 -0.28112,-0.388607 -0.132291,-0.0441 -0.680751,-0.05512 -0.548459,-0.01103 -0.711067,-0.03032 -0.07166,0.08268 -0.148828,0.146072 -0.07442,0.06339 -0.14056,0.126779 z m 1.367014,-2.141471 q 0,-0.388607 -0.195682,-0.631142 -0.192925,-0.24529 -0.51263,-0.24529 -0.413412,0 -0.584288,0.388606 -0.06615,0.148828 -0.06615,0.341754 0,0.394119 0.162608,0.655946 0.198438,0.314193 0.520899,0.314193 0.322461,0 0.49885,-0.21773 0.176389,-0.21773 0.176389,-0.606337 z" />
      <path
         id="path70"
         style="font-style:normal;font-variant:normal;font-weight:normal;font-stretch:normal;font-size:5.64444447px;font-family:Cardo;-inkscape-font-specification:Cardo;text-align:center;letter-spacing:0.95779169px;text-anchor:middle;stroke-width:0.26458335"
         d="m 52.940149,13.224835 q -0.03307,-0.0055 -0.09646,-0.03583 -0.228755,-0.104731 -0.35829,-0.104731 -0.129536,0 -0.272852,0.162609 -0.14056,0.159852 -0.14056,0.289388 v 1.245746 q 0,0.206706 0.239779,0.275608 0.104731,0.02756 0.195681,0.04134 0.09095,0.01103 0.115756,0.02205 0.02756,0.01102 0.02756,0.0441 0,0.03032 -0.02756,0.03583 h -1.380795 q -0.02756,-0.0055 -0.02756,-0.03858 0,-0.04961 0.129535,-0.06615 0.297657,-0.0441 0.297657,-0.314193 v -1.457964 q 0,-0.115755 -0.12678,-0.159852 -0.05512,-0.01929 -0.118511,-0.03032 -0.06339,-0.01378 -0.101975,-0.0248 -0.03583,-0.01102 -0.04685,-0.01929 -0.0083,-0.01103 -0.0083,-0.04134 0,-0.03307 0.04134,-0.05512 l 0.702799,-0.330729 q 0.03307,-0.01654 0.04134,-0.01654 0.04685,0 0.04685,0.06615 v 0.446484 q 0,0.03307 0.01654,0.03307 0.02205,0 0.112999,-0.129535 0.261827,-0.366558 0.432704,-0.366558 0.09646,0 0.2949,0.07717 0.201194,0.07717 0.201194,0.129535 0,0.06339 -0.06339,0.192926 -0.06339,0.129535 -0.12678,0.129535 z" />
      <path
         id="path72"
         style="font-style:normal;font-variant:normal;font-weight:normal;font-stretch:normal;font-size:5.64444447px;font-family:Cardo;-inkscape-font-specification:Cardo;text-align:center;letter-spacing:0.95779169px;text-anchor:middle;stroke-width:0.26458335"
         d="m 55.987047,14.746189 q 0,0.07166 0.06615,0.115756 0.0689,0.04134 0.157096,0.04134 0.08819,0 0.146072,-0.0441 0.06063,-0.04685 0.08268,-0.04685 0.02205,0 0.02205,0.06063 0,0.05788 -0.05512,0.09922 -0.413412,0.303168 -0.559484,0.303168 -0.176389,0 -0.286632,-0.366558 -0.0083,-0.02756 -0.01378,-0.02481 -0.341754,0.256315 -0.429948,0.308681 -0.225998,0.129535 -0.454753,0.04134 -0.225998,-0.08819 -0.327973,-0.292144 -0.04961,-0.104731 -0.04961,-0.223242 0,-0.234267 0.173633,-0.372071 0.173632,-0.137803 0.661458,-0.264583 0.165364,-0.0441 0.2949,-0.112999 0.129536,-0.0689 0.135048,-0.08819 0.0083,-0.01929 0.0083,-0.03583 v -0.529166 q 0,-0.311437 -0.242535,-0.438216 -0.07993,-0.04134 -0.192925,-0.04134 -0.110243,0 -0.225998,0.0882 -0.112999,0.08819 -0.112999,0.250803 l 0.01378,0.107487 q -0.01654,0.03307 -0.198438,0.110243 -0.181901,0.07717 -0.209461,0.08268 -0.0441,0 -0.0441,-0.104731 0,-0.107487 0.06339,-0.237022 0.06339,-0.129536 0.179145,-0.237023 0.270096,-0.250803 0.617361,-0.250803 0.347266,0 0.564996,0.192926 0.21773,0.190169 0.21773,0.454752 z m -1.270551,-0.07993 q 0,0.132292 0.101975,0.231511 0.101974,0.09646 0.23151,0.09646 0.132292,0 0.319705,-0.110243 0.187413,-0.112999 0.187413,-0.23151 v -0.559484 q 0,-0.03032 -0.01378,-0.03032 -0.01378,0 -0.01929,0.0028 l -0.63941,0.297656 q -0.09922,0.07166 -0.135047,0.121267 -0.03307,0.04961 -0.03307,0.181901 z" />
      <path
         id="path74"
         style="font-style:normal;font-variant:normal;font-weight:normal;font-stretch:normal;font-size:5.64444447px;font-family:Cardo;-inkscape-font-specification:Cardo;text-align:center;letter-spacing:0.95779169px;text-anchor:middle;stroke-width:0.26458335"
         d="m 59.185529,15.156845 q 0,0.0441 -0.04961,0.0441 h -1.513086 q -0.02756,-0.0055 -0.02756,-0.03858 0,-0.04961 0.129535,-0.06615 0.297656,-0.0441 0.297656,-0.314193 v -1.670182 q 0,-0.03032 -0.03307,-0.03032 h -0.300413 q -0.03307,0 -0.06339,-0.01929 -0.03032,-0.02205 -0.03032,-0.05512 0,-0.03583 0.03307,-0.05512 0.04685,-0.02756 0.220487,-0.07441 0.173632,-0.04685 0.173632,-0.154341 v -0.09095 q 0,-0.992188 0.429948,-1.526866 0.239779,-0.300413 0.730361,-0.463021 0.148828,-0.04961 0.2949,-0.04961 0.146072,0 0.341753,0.07717 0.195682,0.07442 0.195682,0.181901 0,0.02205 -0.0083,0.03859 -0.0055,0.01654 -0.01378,0.04134 l -0.112999,0.242534 q -0.02205,0.0441 -0.05237,0.0441 -0.0083,0 -0.118511,-0.08544 -0.110243,-0.08819 -0.234266,-0.159852 -0.121268,-0.07441 -0.286632,-0.07441 -0.322461,0 -0.487826,0.165364 -0.165364,0.165365 -0.206706,0.374827 -0.04134,0.206705 -0.04134,0.457508 v 0.802019 q 0,0.02205 0.02756,0.02205 h 0.537435 q 0.07717,0 0.09922,0.01654 0.0248,0.01378 0.04685,0.09922 0.02205,0.08268 0.02205,0.154341 0,0.0689 -0.01378,0.07993 -0.01378,0.01102 -0.05788,0.01102 h -0.62563 q -0.03583,0 -0.03583,0.02756 v 1.617817 q 0,0.394119 0.683507,0.394119 0.04961,0.0055 0.04961,0.03583 z" />
      <path
         id="path76"
         style="font-style:normal;font-variant:normal;font-weight:normal;font-stretch:normal;font-size:5.64444447px;font-family:Cardo;-inkscape-font-specification:Cardo;text-align:center;letter-spacing:0.95779169px;text-anchor:middle;stroke-width:0.26458335"
         d="m 60.369319,13.963464 q 0,-0.542947 0.383095,-0.931554 0.38585,-0.391363 0.923285,-0.391363 0.537435,0 0.93431,0.380339 0.396875,0.377582 0.396875,0.93431 0,0.556727 -0.377582,0.939822 -0.374827,0.380338 -0.942579,0.380338 -0.567751,0 -0.942578,-0.385851 -0.374826,-0.38585 -0.374826,-0.926041 z m 0.686263,0.708311 q 0.270095,0.454753 0.735872,0.454753 0.361046,0 0.551216,-0.289388 0.192925,-0.289388 0.192925,-0.711068 0,-0.421679 -0.270095,-0.865408 -0.26734,-0.443728 -0.722093,-0.443728 -0.333485,0 -0.52641,0.289388 -0.190169,0.286632 -0.190169,0.73036 0,0.440972 0.228754,0.835091 z" />
    </g>
  </g>
</svg>
